<?xml version="1.0" encoding="utf-8"?>
<svg width="59" height="59" viewBox="0 0 59 59" fill="none" xmlns="http://www.w3.org/2000/svg">
  <g>
    <path d="M9.83333 0L9.83333 1.22917L9.83333 2.45833L0 2.45833L0 3.6875L0 14.75L0 17.2083L0 46.7083L44.25 46.7083L44.25 17.2083L44.25 14.75L44.25 2.45833L34.4167 2.45833L34.4167 1.22917L34.4167 0L31.9583 0L31.9583 1.22917L31.9583 2.45833L12.2917 2.45833L12.2917 1.22917L12.2917 0L9.83333 0L9.83333 0ZM2.45812 4.91625L9.83312 4.91625L9.83312 6.14542L9.83312 7.37458L12.2915 7.37458L12.2915 6.14542L12.2915 4.91625L31.9581 4.91625L31.9581 6.14542L31.9581 7.37458L34.4165 7.37458L34.4165 6.14542L34.4165 4.91625L41.7915 4.91625L41.7915 14.7496L2.45812 14.7496L2.45812 4.91625L2.45812 4.91625ZM2.45812 17.2087L41.7915 17.2087L41.7915 44.2504L2.45812 44.2504L2.45812 17.2087L2.45812 17.2087Z" fill="#FFFFFF" transform="translate(7.375 4.916)" />
  </g>
</svg>