<?xml version="1.0" encoding="utf-8"?>
<svg width="50" height="50" viewBox="0 0 50 50" fill="none" xmlns="http://www.w3.org/2000/svg">
  <g>
    <path d="M23 0C10.3093 0 0 10.3093 0 23C0 35.6907 10.3093 46 23 46C35.6907 46 46 35.6907 46 23C46 10.3093 35.6907 0 23 0C23 0 23 0 23 0ZM23 2C34.6098 2 44 11.3902 44 23C44 34.6098 34.6098 44 23 44C11.3902 44 2 34.6098 2 23C2 11.3902 11.3902 2 23 2C23 2 23 2 23 2ZM22.9844 4.98633C22.4329 4.99495 21.9924 5.44847 22 6C22 6 22 20.1738 22 20.1738C20.8021 20.5973 20.001 21.7295 20 23C20.0009 23.4469 20.1017 23.888 20.2949 24.291C20.2949 24.291 14.293 30.293 14.293 30.293C14.0317 30.5438 13.9265 30.9162 14.0179 31.2667C14.1092 31.6171 14.3829 31.8908 14.7333 31.9821C15.0838 32.0735 15.4562 31.9683 15.707 31.707C15.707 31.707 21.709 25.7051 21.709 25.7051C22.112 25.8983 22.5531 25.9991 23 26C24.6569 26 26 24.6569 26 23C25.9982 21.7303 25.1972 20.5991 24.0001 20.1758C24.0001 20.1758 24 6 24 6C24.0037 5.7297 23.8978 5.46942 23.7065 5.27845C23.5152 5.08749 23.2547 4.98211 22.9844 4.98633C22.9844 4.98633 22.9844 4.98633 22.9844 4.98633Z" fill="#FFFFFF" transform="translate(2 2)" />
  </g>
</svg>