<?xml version="1.0" encoding="utf-8"?>
<svg width="50" height="50" viewBox="0 0 50 50" fill="none" xmlns="http://www.w3.org/2000/svg">
  <defs>
    <clipPath id="clip_path_1">
      <rect width="50" height="50" />
    </clipPath>
  </defs>
  <g clip-path="url(#clip_path_1)">
    <path d="M0.812632 0.00585938C0.332163 0.115234 -0.00768054 0.544922 0.000131965 1.03711C0.000131965 1.03711 0.000131965 49.0371 0.000131965 49.0371C0.00403816 49.6035 0.464976 50.0645 1.03138 50.0684C1.03138 50.0684 31.0314 50.0684 31.0314 50.0684C31.5978 50.0645 32.0587 49.6035 32.0626 49.0371C32.0626 49.0371 32.0626 39.0371 32.0626 39.0371L30.0001 39.0371L30.0001 48.0059L2.06263 48.0059L2.06263 2.06836L30.0001 2.06836L30.0001 11.0371L32.0626 11.0371C32.0626 11.0371 32.0626 1.03711 32.0626 1.03711C32.0587 0.470703 31.5978 0.00976557 31.0314 0.00585938C31.0314 0.00585938 1.03138 0.00585938 1.03138 0.00585938C0.957163 -0.00195312 0.886851 -0.00195312 0.812632 0.00585938ZM38.9376 15.1309C38.5626 15.1973 38.2618 15.4707 38.1564 15.834C38.0509 16.2012 38.1603 16.5918 38.4376 16.8496C38.4376 16.8496 45.5939 24.0371 45.5939 24.0371C45.5939 24.0371 16.0314 24.0371 16.0314 24.0371C16.0001 24.0371 15.9689 24.0371 15.9376 24.0371C15.3868 24.0645 14.9572 24.5332 14.9845 25.084C15.0118 25.6348 15.4806 26.0645 16.0314 26.0371C16.0314 26.0371 45.5939 26.0371 45.5939 26.0371C45.5939 26.0371 38.4376 33.2246 38.4376 33.2246C38.1408 33.4668 38.004 33.8535 38.09 34.2285C38.1759 34.5996 38.4689 34.8926 38.84 34.9785C39.215 35.0645 39.6017 34.9277 39.8439 34.6309C39.8439 34.6309 48.7501 25.7559 48.7501 25.7559L49.4376 25.0371L48.7501 24.3184C48.7501 24.3184 39.8439 15.4434 39.8439 15.4434C39.6368 15.2207 39.3361 15.1074 39.0314 15.1309C39.0001 15.1309 38.9689 15.1309 38.9376 15.1309Z" fill="#FFFFFF" transform="translate(-0.031 -0.037)" />
  </g>
</svg>