<?xml version="1.0" encoding="utf-8"?>
<svg width="56" height="56" viewBox="0 0 56 56" fill="none" xmlns="http://www.w3.org/2000/svg">
  <path d="M12 0L12 28L0 28L28 56L56 28L44 28L44 0L12 0ZM16 4L40 4L40 32L46.3984 32L28 50L9.60156 32L16 32L16 4ZM26 10C26 10 26 13 26 13C23.6016 13.7969 22 15.7969 22 18.3984C22 21.6016 24.6016 24.1953 28 24.1953C29.2031 24.1953 30 25 30 26C30 27 29.2031 27.8047 28 27.8047C26.7969 27.8047 26 27 26 26C26 26 22 26 22 26C22 28.3984 23.6016 30.6016 26 31.3984C26 31.3984 26 34 26 34L30 34C30 34 30 31 30 31C32.3984 30.2031 34 28.2031 34 25.6016C34 22.6016 31.3984 20 28 20C26.7969 20 26 19.1953 26 18.1953C26 17.1953 26.7969 16.3984 28 16.3984C29.2031 16.3984 30 17.1953 30 18.1953C30 18.1953 34 18.1953 34 18.1953C34 15.7969 32.3984 13.6016 30 12.7969C30 12.7969 30 10 30 10L26 10Z" fill="#5865F2" />
</svg>