<?xml version="1.0" encoding="utf-8"?>
<svg width="50" height="50" viewBox="0 0 50 50" fill="none" xmlns="http://www.w3.org/2000/svg">
  <g>
    <path d="M22 0C9.86156 0 0 9.86156 0 22C0 33.0191 8.12753 42.1384 18.7129 43.7285C18.7129 43.7285 19.8613 43.9023 19.8613 43.9023L19.8613 26.5664L14.6641 26.5664L14.6641 23.0469L19.8613 23.0469C19.8613 23.0469 19.8613 18.373 19.8613 18.373C19.8613 15.495 20.552 13.5994 21.6953 12.4102C22.8387 11.2209 24.528 10.6211 26.8789 10.6211C28.7587 10.6211 29.49 10.735 30.1855 10.8203C30.1855 10.8203 30.1855 13.7012 30.1855 13.7012C30.1855 13.7012 27.7383 13.7012 27.7383 13.7012C26.3497 13.7012 25.2105 14.4759 24.6191 15.5078C24.0278 16.5397 23.8438 17.7718 23.8438 19.0273C23.8438 19.0273 23.8438 23.0449 23.8438 23.0449L29.9668 23.0449L29.4219 26.5645L23.8438 26.5645L23.8438 43.9297C23.8438 43.9297 24.9785 43.7754 24.9785 43.7754C35.7143 42.3194 44 33.1268 44 22C44 9.86156 34.1384 0 22 0C22 0 22 0 22 0ZM22 2C33.0576 2 42 10.9424 42 22C42 31.7298 35.0358 39.7318 25.8437 41.5332C25.8437 41.5332 25.8437 28.5645 25.8437 28.5645L31.1367 28.5645L32.2988 21.0449L25.8437 21.0449C25.8437 21.0449 25.8437 19.0273 25.8437 19.0273C25.8437 17.9899 26.0336 17.0603 26.3535 16.502C26.6735 15.9436 26.9819 15.7012 27.7383 15.7012C27.7383 15.7012 32.1855 15.7012 32.1855 15.7012L32.1855 9.00976C32.1855 9.00976 31.3184 8.89258 31.3184 8.89258C30.7186 8.81142 29.3492 8.62109 26.8789 8.62109C24.1758 8.62109 21.8556 9.35745 20.2539 11.0234C18.6522 12.6894 17.8613 15.1701 17.8613 18.373C17.8613 18.373 17.8613 21.0469 17.8613 21.0469L12.6641 21.0469L12.6641 28.5664L17.8613 28.5664C17.8613 28.5664 17.8613 41.4707 17.8613 41.4707C8.81699 39.5548 2 31.6244 2 22C2 10.9424 10.9424 2 22 2C22 2 22 2 22 2Z" fill="#FFFFFF" transform="translate(3 3)" />
  </g>
</svg>