<?xml version="1.0" encoding="utf-8"?>
<svg width="38.4" height="58.88" viewBox="0 0 38.4 58.88" fill="none" xmlns="http://www.w3.org/2000/svg">
  <path d="M19.2 0C8.625 0 0 8.625 0 19.2C0 28.905 7.265 36.985 16.64 38.24C16.64 38.24 16.64 44.8 16.64 44.8L7.68 44.8L7.68 49.92L16.64 49.92L16.64 58.88L21.76 58.88L21.76 49.92L30.72 49.92L30.72 44.8L21.76 44.8C21.76 44.8 21.76 38.24 21.76 38.24C31.135 36.985 38.4 28.905 38.4 19.2C38.4 8.625 29.775 0 19.2 0ZM19.2001 5.12012C27.0051 5.12012 33.2801 11.3951 33.2801 19.2001C33.2801 27.0051 27.0051 33.2801 19.2001 33.2801C11.3951 33.2801 5.12012 27.0051 5.12012 19.2001C5.12012 11.3951 11.3951 5.12012 19.2001 5.12012Z" fill="#5865F2" />
</svg>