<?xml version="1.0" encoding="utf-8"?>
<svg width="50" height="50" viewBox="0 0 50 50" fill="none" xmlns="http://www.w3.org/2000/svg">
  <g>
    <path d="M13 0C5.83249 0 0 5.83249 0 13C0 13 0 31 0 31C0 38.1675 5.83249 44 13 44C13 44 31 44 31 44C38.1675 44 44 38.1675 44 31C44 31 44 13 44 13C44 5.83249 38.1675 0 31 0C31 0 13 0 13 0C13 0 13 0 13 0ZM13 2C13 2 31 2 31 2C37.0865 2 42 6.91352 42 13C42 13 42 31 42 31C42 37.0865 37.0865 42 31 42C31 42 13 42 13 42C6.91352 42 2 37.0865 2 31C2 31 2 13 2 13C2 6.91352 6.91352 2 13 2C13 2 13 2 13 2ZM34 8C32.8954 8 32 8.89543 32 10C32 11.1046 32.8954 12 34 12C35.1046 12 36 11.1046 36 10C36 8.89543 35.1046 8 34 8C34 8 34 8 34 8ZM22 11C15.9367 11 11 15.9367 11 22C11 28.0633 15.9367 33 22 33C28.0633 33 33 28.0633 33 22C33 15.9367 28.0633 11 22 11C22 11 22 11 22 11ZM22 13C26.9824 13 31 17.0176 31 22C31 26.9824 26.9824 31 22 31C17.0176 31 13 26.9824 13 22C13 17.0176 17.0176 13 22 13C22 13 22 13 22 13Z" fill="#FFFFFF" transform="translate(3 3)" />
  </g>
</svg>