<?xml version="1.0" encoding="utf-8"?>
<svg width="57.781" height="57.781" viewBox="0 0 57.781 57.781" fill="none" xmlns="http://www.w3.org/2000/svg">
  <path d="M28.8906 0C28.8436 0 28.8033 0 28.7562 0C28.7428 0 28.7361 0 28.7226 0C28.7025 0 28.6891 0.00671864 28.6689 0.00671864C12.8462 0.127657 0 13.0344 0 28.8906C0 44.7469 12.8395 57.6536 28.6689 57.7746C28.689 57.7746 28.7025 57.7813 28.7226 57.7813C28.7361 57.7813 28.7428 57.7813 28.7562 57.7813C28.8033 57.7813 28.8436 57.7813 28.8906 57.7813C44.8208 57.7813 57.7812 44.8208 57.7812 28.8906C57.7812 12.9605 44.8275 0 28.8906 0C28.8906 0 28.8906 0 28.8906 0ZM26.7137 53.6493C21.4395 53.1857 16.6356 51.076 12.8193 47.8308C12.8193 47.8308 26.7137 33.7886 26.7137 33.7886L26.7137 53.6493C26.7137 53.6493 26.7137 53.6493 26.7137 53.6493ZM30.7451 33.7886C30.7451 33.7886 44.794 47.9786 44.794 47.9786C40.924 51.2036 36.0664 53.273 30.7451 53.6694C30.7451 53.6694 30.7451 33.7886 30.7451 33.7886L30.7451 33.7886ZM26.7138 4.13208L26.7138 28.0643C26.7138 28.0643 9.96391 44.9821 9.96391 44.9821C6.26859 40.6418 4.03125 35.0249 4.03125 28.8907C4.03125 15.9168 14.022 5.24067 26.7138 4.13208C26.7138 4.13208 26.7138 4.13208 26.7138 4.13208ZM47.6696 45.1568L30.7451 28.0643C30.7451 28.0643 30.7451 4.10522 30.7451 4.10522C43.5914 5.05929 53.7501 15.8026 53.7501 28.8907C53.7501 35.1055 51.4523 40.7963 47.6696 45.1568C47.6696 45.1568 47.6696 45.1568 47.6696 45.1568Z" fill="#5865F2" />
</svg>