<?xml version="1.0" encoding="utf-8"?>
<svg width="59" height="59" viewBox="0 0 59 59" fill="none" xmlns="http://www.w3.org/2000/svg">
  <g>
    <path d="M25.8125 0C11.5709 0 0 11.5709 0 25.8125C0 31.0315 1.55149 35.8995 4.22046 39.9623C4.45853 40.3363 4.87949 40.553 5.32216 40.5297C5.76483 40.5063 6.16065 40.2465 6.35807 39.8496C6.55548 39.4527 6.52393 38.9802 6.27547 38.6131C3.86061 34.9371 2.45833 30.5448 2.45833 25.8125C2.45833 12.8994 12.8994 2.45833 25.8125 2.45833C38.7256 2.45833 49.1667 12.8994 49.1667 25.8125C49.1667 32.7867 46.206 38.9478 41.3787 43.2273C41.3763 43.2297 41.3739 43.2321 41.3715 43.2345C37.2221 46.9739 31.8394 49.1667 25.8125 49.1667C20.103 49.1667 14.9216 47.0869 10.8584 43.6858C13.1731 37.4129 19.0863 33.1875 25.8125 33.1875C31.12 33.1875 35.9592 35.7977 38.9012 39.9767C39.2917 40.5323 40.0586 40.6661 40.6141 40.2756C41.1697 39.8851 41.3035 39.1183 40.913 38.5627C37.5174 33.7393 31.9264 30.7292 25.8125 30.7292C17.8642 30.7292 10.8017 35.8199 8.29207 43.3593C8.29207 43.3601 8.29207 43.3609 8.29207 43.3617C8.29207 43.3617 8.18164 43.693 8.18164 43.693C8.02743 44.1565 8.16219 44.6672 8.52494 44.9942C13.1081 49.1245 19.1778 51.625 25.8125 51.625C32.435 51.625 38.4297 49.1942 43.0112 45.0686C43.0112 45.0686 43.016 45.0638 43.016 45.0638C48.3461 40.3361 51.625 33.4826 51.625 25.8125C51.625 11.5709 40.0541 0 25.8125 0C25.8125 0 25.8125 0 25.8125 0ZM25.8124 9.83316C21.1295 9.83316 17.4507 14.0464 17.4507 19.0519C17.4507 24.0574 21.1295 28.2707 25.8124 28.2707C30.4953 28.2707 34.1741 24.0574 34.1741 19.0519C34.1741 14.0464 30.4953 9.83316 25.8124 9.83316C25.8124 9.83316 25.8124 9.83316 25.8124 9.83316ZM25.8125 12.2918C29.0069 12.2918 31.7158 15.2327 31.7158 19.0523C31.7158 22.8718 29.0069 25.8127 25.8125 25.8127C22.618 25.8127 19.9091 22.8718 19.9091 19.0523C19.9091 15.2327 22.618 12.2918 25.8125 12.2918C25.8125 12.2918 25.8125 12.2918 25.8125 12.2918Z" fill="#FFFFFF" transform="translate(3.688 3.688)" />
  </g>
</svg>