<?xml version="1.0" encoding="utf-8"?>
<svg width="50" height="50" viewBox="0 0 50 50" fill="none" xmlns="http://www.w3.org/2000/svg">
  <g>
    <path d="M20.2031 8.34465e-07C19.7136 0.000259995 19.2962 0.35484 19.2168 0.837892C19.2168 0.837892 18.2441 6.79297 18.2441 6.79297C17.0746 7.1332 15.9593 7.59227 14.9082 8.16406C14.9082 8.16406 9.99414 4.6543 9.99414 4.6543C9.59687 4.37061 9.05283 4.41519 8.70703 4.75977C8.70703 4.75977 4.81641 8.64648 4.81641 8.64648C4.47321 8.98992 4.42626 9.53025 4.70508 9.92774C4.70508 9.92774 8.16211 14.873 8.16211 14.873C7.5815 15.9303 7.11226 17.0518 6.76367 18.2324C6.76367 18.2324 0.833986 19.2187 0.833986 19.2187C0.352487 19.2999 -5.72205e-05 19.7168 1.66893e-06 20.2051C1.66893e-06 20.2051 1.66893e-06 25.7051 1.66893e-06 25.7051C-0.000884771 26.1902 0.346593 26.6061 0.824208 26.6914C0.824208 26.6914 6.75781 27.7422 6.75781 27.7422C7.10451 28.9207 7.57077 30.0431 8.15235 31.1016C8.15235 31.1016 4.65235 35.998 4.65235 35.998C4.36866 36.3953 4.41324 36.9394 4.75781 37.2852C4.75781 37.2852 8.64649 41.1758 8.64649 41.1758C8.98914 41.5185 9.52823 41.5663 9.92578 41.2891C9.92578 41.2891 14.8809 37.8203 14.8809 37.8203C15.935 38.3955 17.053 38.8579 18.2266 39.2012C18.2266 39.2012 19.2168 45.1641 19.2168 45.1641C19.2971 45.6463 19.7142 45.9999 20.2031 46C20.2031 46 25.7031 46 25.7031 46C26.1889 46.0007 26.605 45.6522 26.6895 45.1738C26.6895 45.1738 27.75 39.1875 27.75 39.1875C28.9187 38.839 30.0314 38.3697 31.0801 37.791C31.0801 37.791 36.0684 41.291 36.0684 41.291C36.4658 41.5698 37.0062 41.5229 37.3496 41.1797C37.3496 41.1797 41.2383 37.2871 41.2383 37.2871C41.5844 36.9402 41.6282 36.3937 41.3418 35.9961C41.3418 35.9961 37.7852 31.0586 37.7852 31.0586C38.3538 30.015 38.812 28.9089 39.1523 27.748C39.1523 27.748 45.1699 26.6934 45.1699 26.6934C45.6483 26.6089 45.9968 26.1928 45.9961 25.707C45.9961 25.707 45.9961 20.207 45.9961 20.207C45.9959 19.7175 45.6413 19.3001 45.1582 19.2207C45.1582 19.2207 39.1504 18.2383 39.1504 18.2383C38.8077 17.0788 38.3483 15.9747 37.7793 14.9316C37.7793 14.9316 41.2871 9.93359 41.2871 9.93359C41.5659 9.53611 41.519 8.99578 41.1758 8.65234C41.1758 8.65234 37.2852 4.76367 37.2852 4.76367C36.9383 4.41755 36.3917 4.37372 35.9941 4.66016C35.9941 4.66016 31.0703 8.20117 31.0703 8.20117C30.0212 7.62481 28.9078 7.15799 27.7363 6.8125C27.7363 6.8125 26.6895 0.828126 26.6895 0.828126C26.6058 0.348956 26.1895 -0.000546455 25.7031 8.34465e-07C25.7031 8.34465e-07 20.2031 8.34465e-07 20.2031 8.34465e-07C20.2031 8.34465e-07 20.2031 8.34465e-07 20.2031 8.34465e-07ZM21.0547 2L24.8633 2C24.8633 2 25.8594 7.68555 25.8594 7.68555C25.9271 8.07514 26.218 8.38824 26.6016 8.48438C28.0641 8.84883 29.4377 9.42655 30.6914 10.1855C31.0341 10.3932 31.4675 10.3763 31.793 10.1426C31.793 10.1426 36.4727 6.7793 36.4727 6.7793L39.166 9.47266C39.166 9.47266 35.834 14.2207 35.834 14.2207C35.6066 14.5443 35.5913 14.9715 35.7949 15.3105C36.5464 16.5615 37.1164 17.9264 37.4805 19.3809C37.5774 19.768 37.8952 20.0605 38.2891 20.125C38.2891 20.125 43.9961 21.0586 43.9961 21.0586L43.9961 24.8672C43.9961 24.8672 38.2773 25.8711 38.2773 25.8711C37.8874 25.9401 37.575 26.2327 37.4805 26.6172C37.1206 28.0698 36.5503 29.4347 35.7988 30.6856C35.5927 31.0281 35.6103 31.4606 35.8437 31.7852C35.8437 31.7852 39.2227 36.4746 39.2227 36.4746L36.5293 39.1699C36.5293 39.1699 31.7891 35.8438 31.7891 35.8438C31.4638 35.6159 31.0345 35.6021 30.6953 35.8086C29.4478 36.5676 28.0728 37.148 26.6152 37.5176C26.2336 37.6138 25.9438 37.9249 25.875 38.3125C25.875 38.3125 24.8652 44 24.8652 44L21.0508 44C21.0508 44 20.1094 38.3379 20.1094 38.3379C20.0439 37.9442 19.7506 37.6272 19.3633 37.5312C17.8999 37.1706 16.5201 36.5937 15.2578 35.8359C14.9192 35.6332 14.4931 35.6485 14.1699 35.875C14.1699 35.875 9.4668 39.1699 9.4668 39.1699L6.77149 36.4707C6.77149 36.4707 10.0957 31.8242 10.0957 31.8242C10.3279 31.4988 10.344 31.0664 10.1367 30.7246C9.3707 29.4589 8.79137 28.0792 8.42578 26.6094C8.33023 26.2269 8.01895 25.9363 7.63086 25.8672C7.63086 25.8672 2 24.8672 2 24.8672L2 21.0527C2 21.0527 7.62696 20.1172 7.62696 20.1172C8.02007 20.052 8.33698 19.7596 8.43359 19.373C8.80232 17.8981 9.38137 16.5187 10.1445 15.2559C10.3502 14.9171 10.3364 14.4889 10.1094 14.1641C10.1094 14.1641 6.82422 9.46875 6.82422 9.46875L9.52149 6.77344C9.52149 6.77344 14.1836 10.1055 14.1836 10.1055C14.5077 10.3366 14.9381 10.3535 15.2793 10.1484C16.535 9.39429 17.9179 8.82208 19.3828 8.46289C19.7721 8.36706 20.0665 8.04803 20.1309 7.65234C20.1309 7.65234 21.0547 2 21.0547 2L21.0547 2ZM22.998 15C18.5916 15 14.998 18.5936 14.998 23C14.998 27.4064 18.5916 31 22.998 31C27.4045 31 30.998 27.4064 30.998 23C30.998 18.5936 27.4045 15 22.998 15C22.998 15 22.998 15 22.998 15ZM22.998 17C26.3236 17 28.998 19.6744 28.998 23C28.998 26.3256 26.3236 29 22.998 29C19.6725 29 16.998 26.3256 16.998 23C16.998 19.6744 19.6725 17 22.998 17C22.998 17 22.998 17 22.998 17Z" fill="#FFFFFF" transform="translate(2.002 2)" />
  </g>
</svg>