<?xml version="1.0" encoding="utf-8"?>
<svg width="48.75" height="58.5" viewBox="0 0 48.75 58.5" fill="none" xmlns="http://www.w3.org/2000/svg">
  <path d="M24.375 58.4997C24.0179 58.4997 23.662 58.4217 23.3317 58.2657C22.3287 57.7904 0 46.4487 0 30.1638C0 30.1638 0 8.53094 0 8.53094C0 7.30244 0.915281 6.26529 2.13525 6.11295C2.27662 6.09466 15.2332 4.2836 23.2854 0.256852C23.9716 -0.0856171 24.7808 -0.0856171 25.4658 0.256852C33.5168 4.2836 46.4734 6.09466 46.616 6.11295C47.8347 6.26529 48.75 7.30244 48.75 8.53094C48.75 8.53094 48.75 30.1638 48.75 30.1638C48.75 46.4487 26.4213 57.7904 25.4183 58.2657C25.088 58.4217 24.7321 58.4997 24.375 58.4997C24.375 58.4997 24.375 58.4997 24.375 58.4997ZM4.875 10.6455C4.875 10.6455 4.875 30.1637 4.875 30.1637C4.875 41.7017 20.0326 51.0531 24.3738 53.3298C28.715 51.0483 43.875 41.6773 43.875 30.1637C43.875 30.1637 43.875 10.6455 43.875 10.6455C39.635 9.99222 31.2487 8.26159 24.375 5.13672C17.5013 8.26159 9.11503 9.99222 4.875 10.6455C4.875 10.6455 4.875 10.6455 4.875 10.6455Z" fill="#5865F2" />
</svg>