<?xml version="1.0" encoding="utf-8"?>
<svg width="66" height="66" viewBox="0 0 66 66" fill="none" xmlns="http://www.w3.org/2000/svg">
  <g>
    <path d="M28.2511 0C19.537 0 11.3541 0.66 6.99703 1.58297C4.09406 2.24297 1.58297 4.22297 1.05703 7.26C0.531094 10.4259 0 15.18 0 21.12C0 27.06 0.525938 31.68 1.18594 34.98C1.71703 37.883 4.22297 39.997 7.12594 40.657C11.7511 41.58 19.6659 42.24 28.38 42.24C37.0941 42.24 45.0089 41.58 49.6289 40.657C52.537 39.997 55.043 38.017 55.5689 34.98C56.1 31.68 56.76 26.9311 56.8889 20.9911C56.8889 15.0511 56.2289 10.297 55.5689 6.99703C55.043 4.09406 52.537 1.98 49.6289 1.32C45.0089 0.66 36.96 0 28.2511 0ZM28.2512 2.64007C37.7541 2.64007 45.406 3.42897 49.103 4.08897C51.083 4.62007 52.666 5.94007 52.929 7.6571C53.723 11.8801 54.249 16.3712 54.249 20.9912C54.1201 26.663 53.4601 31.283 52.929 34.583C52.5371 37.089 49.8971 37.883 49.103 38.1512C44.349 39.0741 36.429 39.729 28.509 39.729C20.589 39.729 12.5401 39.203 7.92007 38.1512C5.94007 37.6201 4.3571 36.3001 4.09413 34.583C3.0371 30.886 2.64007 26.003 2.64007 21.1201C2.64007 15.046 3.17116 10.5601 3.6971 7.79116C4.09413 5.28007 6.86304 4.48601 7.52304 4.22304C11.8801 3.30007 19.9341 2.64007 28.2512 2.64007ZM21.1199 10.5598L21.1199 31.6798L39.5999 21.1199L21.1199 10.5598ZM23.76 15.0511L34.32 21.12L23.76 27.1889L23.76 15.0511Z" fill="#FFFFFF" transform="translate(3.96 11.88)" />
  </g>
</svg>